<svg xmlns="http://www.w3.org/2000/svg" width="1920" height="1920" viewBox="0 0 1920 1920" version="1.1"><path d="M 661 184.635 C 559.763 191.993, 499.682 211.760, 431.974 259.986 C 382.622 295.137, 333.526 363.299, 318.565 417.438 C 317.796 420.222, 316.189 425.875, 314.994 430 C 283.046 540.313, 351.450 659.777, 469 698.963 C 515.961 714.618, 523.004 714.992, 771.500 715.033 C 965.570 715.065, 978.130 715.286, 998.913 719.028 C 1054.678 729.069, 1101.054 762.056, 1127.515 810.500 C 1138.222 830.103, 1144.956 847.543, 1147.409 862.022 C 1161.212 943.508, 1135.241 1007.748, 1072 1048.553 C 1021.427 1081.183, 938.594 1082.164, 893.500 1050.666 C 839.376 1012.862, 809.396 955.821, 813.523 898.500 C 816.252 860.584, 820.859 839.861, 831.885 815.903 C 841.485 795.042, 851.613 779.899, 858.390 776.274 C 861.342 774.696, 859.493 772.998, 855.933 774.019 C 854.261 774.499, 822.204 775.194, 784.696 775.563 C 747.188 775.933, 716.205 776.408, 715.845 776.618 C 714.582 777.356, 705.227 800.621, 701.137 813.198 C 674.853 894.001, 688.013 992.900, 734.308 1062.500 C 863.005 1255.978, 1146.843 1233.954, 1252.857 1022.265 C 1294.078 939.955, 1287.142 825.937, 1235.613 738.770 C 1189.817 661.301, 1134.841 614.176, 1053.175 582.385 C 998.672 561.168, 994.656 560.875, 746.500 559.974 C 607.459 559.470, 548.057 558.927, 542.094 558.108 C 430.357 542.755, 439.224 424.327, 556.500 365.705 C 595.025 346.447, 601.179 345.946, 802 345.702 C 1019.373 345.439, 1031.870 346.373, 1109 368.662 C 1173.896 387.415, 1207.091 401.900, 1260.771 434.887 C 1270.270 440.724, 1279.495 446.379, 1281.271 447.454 C 1314.576 467.614, 1376.983 523.825, 1406.106 559.896 C 1519.742 700.642, 1569.561 873.835, 1548.944 1056.466 C 1543.791 1102.106, 1535.912 1136.117, 1521.018 1177 C 1509.261 1209.273, 1502.651 1226.657, 1495.675 1243.650 C 1481.416 1278.387, 1481.089 1274.087, 1499.427 1293 C 1506.093 1299.875, 1513.747 1307.975, 1516.436 1311 C 1519.125 1314.025, 1526.333 1321.675, 1532.454 1328 C 1550.321 1346.463, 1579.923 1377.908, 1587.366 1386.331 C 1595.871 1395.957, 1594.956 1396.510, 1607.764 1374 C 1608.859 1372.075, 1611.432 1367.575, 1613.482 1364 C 1706.135 1202.390, 1736.490 981.250, 1691.516 795.500 C 1662.808 676.931, 1619.799 580.963, 1561.103 504.504 C 1558.571 501.206, 1554.143 495.223, 1551.262 491.210 C 1493.460 410.678, 1395.857 326.269, 1306.478 279.516 C 1301.573 276.951, 1294.847 273.337, 1291.530 271.486 C 1218.904 230.942, 1095.866 195.578, 996.885 186.798 C 974.586 184.821, 684.182 182.950, 661 184.635 M 1199.500 483.410 C 1162.452 491.950, 1145.109 522.727, 1157.446 558.039 C 1162.991 573.909, 1168.460 580.707, 1199.227 609.970 C 1323.573 728.241, 1372.596 887.328, 1333.434 1045.500 C 1326.388 1073.959, 1326.094 1072.840, 1345 1089.468 C 1355.545 1098.743, 1365.699 1108.387, 1395.500 1137.433 C 1456.283 1196.677, 1456.993 1197.088, 1466.355 1178.500 C 1480.817 1149.787, 1494.865 1090.965, 1499.673 1039 C 1510.179 925.428, 1485.778 787.841, 1440.260 704 C 1388.594 608.833, 1343.455 555.762, 1274.500 509.111 C 1237.160 483.848, 1221.250 478.396, 1199.500 483.410 M 329.332 672.250 C 314.577 695.727, 302.609 757.410, 300.085 823 C 296.964 904.074, 296.967 1318.829, 300.089 1374.500 C 310.021 1551.596, 398.071 1678.232, 553 1738.242 C 602.951 1757.590, 644.724 1765.409, 712.541 1768.104 C 746.505 1769.453, 928.791 1768.677, 955 1767.071 C 1013.563 1763.483, 1051.306 1757.411, 1123.500 1739.965 C 1210.786 1718.871, 1311.827 1673.277, 1379.177 1624.592 C 1404.557 1606.245, 1416 1595.903, 1416 1591.310 C 1416 1584.758, 1357.399 1518.241, 1334 1498.234 C 1314.640 1481.680, 1314.360 1481.634, 1298.833 1492.536 C 1286.662 1501.082, 1283.036 1503.194, 1256 1517.486 C 1148.718 1574.198, 1062.523 1601.673, 975 1607.054 C 947.347 1608.754, 669.706 1608.228, 656.967 1606.452 C 563.653 1593.436, 495.937 1530.524, 468.619 1431.464 C 457.572 1391.406, 457.941 1404.332, 457.520 1042 C 457.140 715.840, 457.790 742.114, 450.068 740.797 C 415.257 734.865, 377.338 714.503, 347.269 685.595 C 331.955 670.873, 330.758 669.982, 329.332 672.250 M 991.250 791.679 C 983.327 793.529, 983.302 794.588, 991.176 794.777 C 998.216 794.947, 1010.550 800.415, 1019.055 807.137 C 1034.967 819.715, 1032.272 854.129, 1014.032 871.288 C 1003.414 881.276, 998.894 883.460, 957 898.844 C 911.582 915.521, 899.223 929.064, 906.603 954.068 C 924.176 1013.604, 992.276 1031.407, 1043.269 989.797 C 1095.913 946.841, 1102.675 866.157, 1057.569 819.172 C 1037.437 798.201, 1010.732 787.130, 991.250 791.679 M 980 810.302 C 969.459 814.515, 965.475 819.197, 964.350 828.694 C 961.669 851.331, 994.137 861.979, 1007.902 842.977 C 1010.023 840.049, 1010.937 839.394, 1011.361 840.498 C 1012.575 843.663, 1019.807 840.913, 1021.805 836.528 C 1024.459 830.704, 1020.583 821.595, 1014.069 818.347 C 1012.783 817.706, 1011.437 816.707, 1011.079 816.128 C 1007.016 809.553, 989.900 806.345, 980 810.302 M 592.500 1106.610 C 530.198 1115.720, 505.182 1178.485, 544.516 1227 C 556.725 1242.059, 589.067 1273.101, 606.433 1286.428 C 609.352 1288.668, 617.311 1294.829, 624.120 1300.119 C 674.190 1339.023, 762.761 1381.682, 824 1396.388 C 895.906 1413.656, 954.192 1419.257, 1017.170 1414.952 C 1085.444 1410.285, 1181.007 1382.843, 1203.761 1361.369 C 1210.823 1354.705, 1211.523 1355.869, 1181 1323.501 C 1157.795 1298.893, 1133.631 1267.869, 1126.625 1253.688 C 1123.609 1247.584, 1122.408 1246.019, 1121.133 1246.530 C 1033.342 1281.703, 902.637 1278.145, 814.986 1238.196 C 758.375 1212.394, 717.615 1184.991, 677 1145.427 C 650.705 1119.813, 643.683 1114.864, 625.880 1109.401 C 617.638 1106.872, 600.504 1105.439, 592.500 1106.610 M 1260.011 1148.774 C 1256.992 1151.373, 1246.192 1161.316, 1236.011 1170.869 C 1225.830 1180.422, 1209.850 1194.320, 1200.500 1201.752 C 1174.524 1222.402, 1169.628 1227.693, 1171.893 1232.664 C 1173.194 1235.520, 1186.359 1251.681, 1199 1265.942 C 1203.675 1271.216, 1213.800 1282.916, 1221.500 1291.942 C 1229.200 1300.968, 1240.225 1313.715, 1246 1320.270 C 1251.775 1326.824, 1258.975 1335, 1262 1338.438 C 1265.025 1341.877, 1274.062 1351.847, 1282.082 1360.595 C 1290.103 1369.343, 1302.928 1383.514, 1310.582 1392.088 C 1318.237 1400.661, 1330.575 1414.326, 1338 1422.454 C 1354.138 1440.120, 1360.849 1447.746, 1373.681 1463 C 1379.002 1469.325, 1386.088 1477.432, 1389.428 1481.017 C 1418.840 1512.582, 1445.927 1542.321, 1463.186 1562 C 1521.325 1628.287, 1532.207 1640.570, 1543.854 1653.057 C 1550.809 1660.513, 1561.225 1671.968, 1567 1678.511 C 1630.454 1750.410, 1653.442 1761.400, 1696.399 1740.377 C 1723.244 1727.238, 1742.274 1694.382, 1739.615 1665.764 C 1737.713 1645.303, 1724.984 1627.900, 1661.488 1558.955 C 1651.582 1548.198, 1637.917 1532.895, 1631.123 1524.949 C 1616.248 1507.551, 1595.949 1484.588, 1575.068 1461.536 C 1566.581 1452.166, 1557.829 1442.475, 1555.620 1440 C 1549.581 1433.235, 1524.427 1406.634, 1497.500 1378.538 C 1484.300 1364.764, 1469.210 1348.771, 1463.968 1342.998 C 1458.725 1337.224, 1447.700 1325.079, 1439.468 1316.010 C 1431.235 1306.940, 1408.551 1282.640, 1389.058 1262.010 C 1274.020 1140.261, 1271.979 1138.470, 1260.011 1148.774 M 1248.500 1419.413 C 1190.485 1437.963, 1151.534 1473.100, 1158.448 1500.648 C 1159.698 1505.628, 1173.344 1499.646, 1229 1469.722 C 1274.572 1445.219, 1277.446 1442.797, 1272.068 1433.421 C 1265.215 1421.472, 1257.115 1416.658, 1248.500 1419.413" stroke="none" fill="#f9f9f9" fill-rule="evenodd"/></svg>